<svg xmlns="http://www.w3.org/2000/svg" viewBox="0 0 144 144">
  <rect width="144" height="144" rx="28" fill="#F6F6F8"/>
  <g transform="translate(36 6)">
    <path d="M0.136 78.77C-0.606 81.38 1.808 83.80 4.410 83.05L35.246 75.61C37.847 75.05 40.261 77.28 39.519 79.89L27.445 127.55C26.333 131.64 32.273 133.88 34.133 129.97L71.656 52.15C72.957 49.36 70.355 46.19 67.382 47.31L40.821 53.82C38.037 54.76 35.435 51.96 36.365 49.17L52.154 6.91C52.708 4.86 51.224 2.63 48.993 2.25L22.985 0.02C21.314 -0.17 19.642 0.95 19.271 2.63L0.136 78.77Z" fill="#E73F3E"/>
  </g>
</svg>
